<?xml version="1.0" encoding="utf-8"?>
<!-- Generator: Adobe Illustrator 23.1.0, SVG Export Plug-In . SVG Version: 6.00 Build 0)  -->
<svg version="1.1" id="图层_1" xmlns="http://www.w3.org/2000/svg" xmlns:xlink="http://www.w3.org/1999/xlink" x="0px" y="0px"
	 viewBox="0 0 320 320" style="enable-background:new 0 0 320 320;" xml:space="preserve">
<style type="text/css">
	.st0{fill:#DC8527;}
	.st1{fill:#0A5E8F;}
</style>
<g>
	<path class="st0" d="M171.93,69.88c2.77-2.87,4.53-6.67,4.53-10.99c0-9.09-7.37-16.45-16.46-16.45c-9.09,0-16.46,7.36-16.46,16.45
		c0,4.32,1.76,8.12,4.53,10.99l11.93-8.5L171.93,69.88z"/>
	<polyline class="st1" points="160,90.96 224.87,137.2 254.67,137.2 160,69.72 65.33,137.2 95.13,137.2 160,90.96 	"/>
	<polyline class="st1" points="160,140.8 244.33,200.9 283.08,200.9 160,113.18 36.92,200.9 75.67,200.9 160,140.8 	"/>
	<polyline class="st1" points="160,221.55 81.41,277.56 108.17,277.56 173.12,230.9 160,221.55 	"/>
	<path class="st1" d="M179.04,234.98l-59.27,42.58h1.48h116.23h1.1L179.04,234.98 M158.55,264.66l21.92-15.72l24,15.72H158.55"/>
	<polyline class="st1" points="160,163.52 0,277.56 50.37,277.56 160,199.42 269.63,277.56 320,277.56 160,163.52 	"/>
	<g>
		<defs>
			<polyline id="SVGID_1_" points="160,69.72 65.33,137.2 65.33,137.2 160,69.72 			"/>
		</defs>
		<clipPath id="SVGID_2_">
			<use xlink:href="#SVGID_1_"  style="overflow:visible;"/>
		</clipPath>
	</g>
	<g>
		<defs>
			<polyline id="SVGID_3_" points="160,69.72 65.33,137.2 95.13,137.2 160,90.96 160,69.72 			"/>
		</defs>
		<clipPath id="SVGID_4_">
			<use xlink:href="#SVGID_3_"  style="overflow:visible;"/>
		</clipPath>
	</g>
	<g>
		<defs>
			<polyline id="SVGID_5_" points="160,113.18 36.92,200.9 75.67,200.9 160,140.8 160,113.18 			"/>
		</defs>
		<clipPath id="SVGID_6_">
			<use xlink:href="#SVGID_5_"  style="overflow:visible;"/>
		</clipPath>
	</g>
	<g>
		<defs>
			<polyline id="SVGID_7_" points="160,163.52 0,277.56 50.37,277.56 160,199.42 160,163.52 			"/>
		</defs>
		<clipPath id="SVGID_8_">
			<use xlink:href="#SVGID_7_"  style="overflow:visible;"/>
		</clipPath>
	</g>
	<g>
		<defs>
			<polyline id="SVGID_9_" points="160,240.33 155.16,243.8 160,240.33 			"/>
		</defs>
		<clipPath id="SVGID_10_">
			<use xlink:href="#SVGID_9_"  style="overflow:visible;"/>
		</clipPath>
	</g>
	<g>
		<defs>
			<polyline id="SVGID_11_" points="160,221.55 81.41,277.56 108.17,277.56 155.16,243.8 160,240.33 160,221.55 			"/>
		</defs>
		<clipPath id="SVGID_12_">
			<use xlink:href="#SVGID_11_"  style="overflow:visible;"/>
		</clipPath>
	</g>
	<g>
		<defs>
			<path id="SVGID_13_" d="M160,264.66h-1.45l0,0L160,264.66L160,264.66 M160,263.62l-0.19,0.14L160,263.62"/>
		</defs>
		<clipPath id="SVGID_14_">
			<use xlink:href="#SVGID_13_"  style="overflow:visible;"/>
		</clipPath>
	</g>
	<g>
		<defs>
			<polyline id="SVGID_15_" points="160,248.66 119.77,277.56 121.26,277.56 160,277.56 160,264.66 158.55,264.66 158.55,264.66 
				158.55,264.66 159.81,263.76 160,263.62 160,248.66 			"/>
		</defs>
		<clipPath id="SVGID_16_">
			<use xlink:href="#SVGID_15_"  style="overflow:visible;"/>
		</clipPath>
	</g>
</g>
</svg>
